# xmcd CD database file
#
# Track frame offsets:
#	150
#	14808
#	38379
#	52939
#	63778
#	82994
#	99714
#	110140
#	121043
#	135836
#	155121
#	166421
#	181854
#	194030
#	212304
#	226324
#	241192
#	252561
#	262293
#	272193
#
# Disc length: 3797 seconds
#
# Revision: 0
# Processed by: cddbd v1.5.2PL0 Copyright (c) Steve Scherf et al.
# Submitted via: ACXtractor (MTCDDB.DLL V2003.12.21)
#
DISCID=140ed314
DTITLE=Louise Morrissey - The Gift
DYEAR=2006
DGENRE=Country
TTITLE0=Sailor
TTITLE1=The Gift
TTITLE2=Tipperary on my Mind
TTITLE3=If I could Only Start Over
TTITLE4=An Irish Harvest Day
TTITLE5=Grandpa
TTITLE6=Forever and Ever
TTITLE7=My Dixie Darling
TTITLE8=The Night Daniel O'Donnell Came to Town
TTITLE9=The Rose of Allendale
TTITLE10=Every Second Every Minute
TTITLE11=Part of Me
TTITLE12=What Part of No
TTITLE13=Nobody's Child
TTITLE14=I Still Love You
TTITLE15=Save the Last Dance for Me
TTITLE16=You are the One
TTITLE17=If You Should Come Back
TTITLE18=Everybody's Reaching out for Someone
TTITLE19=The Old Rugged Cross
EXTD=ID3G:   2 YEAR: 2006
EXTT0=
EXTT1=
EXTT2=
EXTT3=
EXTT4=
EXTT5=
EXTT6=
EXTT7=
EXTT8=
EXTT9=
EXTT10=
EXTT11=
EXTT12=
EXTT13=
EXTT14=
EXTT15=
EXTT16=
EXTT17=
EXTT18=
EXTT19=
PLAYORDER=
